<mxfile host="drawio-plugin" modified="2022-05-09T07:51:17.763Z" agent="5.0 (Macintosh; Intel Mac OS X 10_15_7) AppleWebKit/537.36 (KHTML, like Gecko) Chrome/89.0.4389.114 Safari/537.36" etag="A32MD6s080Gg4tVfKnSf" version="15.5.4" type="embed"><diagram id="Gak5x3cFnnJdtevRshOn" name="Page-1"><mxGraphModel dx="986" dy="678" grid="1" gridSize="10" guides="1" tooltips="1" connect="1" arrows="1" fold="1" page="1" pageScale="1" pageWidth="850" pageHeight="1100" math="0" shadow="0"><root><mxCell id="0"/><mxCell id="1" parent="0"/><mxCell id="2" value="" style="rounded=0;whiteSpace=wrap;html=1;" parent="1" vertex="1"><mxGeometry x="75" y="120" width="700" height="580" as="geometry"/></mxCell><mxCell id="28" style="edgeStyle=none;rounded=0;orthogonalLoop=1;jettySize=auto;html=1;exitX=0.5;exitY=1;exitDx=0;exitDy=0;entryX=0.5;entryY=0;entryDx=0;entryDy=0;fontSize=18;fillColor=#0050ef;strokeColor=#001DBC;" parent="1" source="3" target="9" edge="1"><mxGeometry relative="1" as="geometry"/></mxCell><mxCell id="46" style="edgeStyle=none;rounded=0;orthogonalLoop=1;jettySize=auto;html=1;exitX=0.5;exitY=1;exitDx=0;exitDy=0;entryX=0.25;entryY=0;entryDx=0;entryDy=0;fillColor=#0050ef;strokeColor=#001DBC;" parent="1" source="3" target="4" edge="1"><mxGeometry relative="1" as="geometry"/></mxCell><mxCell id="3" value="hash" style="ellipse;whiteSpace=wrap;html=1;" parent="1" vertex="1"><mxGeometry x="365" y="150" width="95" height="60" as="geometry"/></mxCell><mxCell id="4" value="" style="rounded=1;whiteSpace=wrap;html=1;fillColor=#66B2FF;" parent="1" vertex="1"><mxGeometry x="120" y="260" width="110" height="280" as="geometry"/></mxCell><mxCell id="33" style="edgeStyle=none;rounded=0;orthogonalLoop=1;jettySize=auto;html=1;exitX=0.5;exitY=1;exitDx=0;exitDy=0;entryX=0.5;entryY=0;entryDx=0;entryDy=0;entryPerimeter=0;fontSize=18;fillColor=#0050ef;strokeColor=#001DBC;" parent="1" source="5" target="21" edge="1"><mxGeometry relative="1" as="geometry"/></mxCell><mxCell id="5" value="" style="rounded=1;whiteSpace=wrap;html=1;fillColor=#66B2FF;" parent="1" vertex="1"><mxGeometry x="310" y="260" width="100" height="270" as="geometry"/></mxCell><mxCell id="9" value="" style="rounded=1;whiteSpace=wrap;html=1;fillColor=#66B2FF;" parent="1" vertex="1"><mxGeometry x="490" y="260" width="100" height="270" as="geometry"/></mxCell><mxCell id="10" value="" style="rounded=1;whiteSpace=wrap;html=1;fillColor=#66B2FF;" parent="1" vertex="1"><mxGeometry x="640" y="260" width="90" height="270" as="geometry"/></mxCell><mxCell id="11" value="&lt;b&gt;cmdClient&lt;/b&gt;" style="text;html=1;strokeColor=none;fillColor=none;align=center;verticalAlign=middle;whiteSpace=wrap;rounded=0;" parent="1" vertex="1"><mxGeometry x="140" y="220" width="60" height="30" as="geometry"/></mxCell><mxCell id="16" style="edgeStyle=none;rounded=0;orthogonalLoop=1;jettySize=auto;html=1;" parent="1" target="3" edge="1"><mxGeometry relative="1" as="geometry"><mxPoint x="413" y="80" as="sourcePoint"/></mxGeometry></mxCell><mxCell id="15" value="cmd" style="text;html=1;strokeColor=none;fillColor=none;align=center;verticalAlign=middle;whiteSpace=wrap;rounded=0;" parent="1" vertex="1"><mxGeometry x="373.75" y="40" width="77.5" height="40" as="geometry"/></mxCell><mxCell id="39" style="edgeStyle=orthogonalEdgeStyle;rounded=0;orthogonalLoop=1;jettySize=auto;html=1;exitX=0;exitY=0.5;exitDx=0;exitDy=0;exitPerimeter=0;entryX=0.5;entryY=1;entryDx=0;entryDy=0;entryPerimeter=0;fillColor=#0050ef;strokeColor=#001DBC;" parent="1" source="21" target="38" edge="1"><mxGeometry relative="1" as="geometry"/></mxCell><mxCell id="21" value="" style="shape=cylinder3;whiteSpace=wrap;html=1;boundedLbl=1;backgroundOutline=1;size=15;fillColor=#66B2FF;" parent="1" vertex="1"><mxGeometry x="340" y="580" width="80" height="100" as="geometry"/></mxCell><mxCell id="22" value="redis" style="text;html=1;strokeColor=none;fillColor=none;align=center;verticalAlign=middle;whiteSpace=wrap;rounded=0;" parent="1" vertex="1"><mxGeometry x="350" y="630" width="60" height="30" as="geometry"/></mxCell><mxCell id="23" value="&lt;b&gt;&lt;font style=&quot;font-size: 18px&quot;&gt;开辟n个cmdClient的线程&lt;/font&gt;&lt;/b&gt;" style="text;html=1;strokeColor=none;fillColor=none;align=center;verticalAlign=middle;whiteSpace=wrap;rounded=0;" parent="1" vertex="1"><mxGeometry x="430" y="540" width="210" height="30" as="geometry"/></mxCell><mxCell id="27" value="根据key哈希到不同的线程" style="text;html=1;strokeColor=none;fillColor=none;align=center;verticalAlign=middle;whiteSpace=wrap;rounded=0;fontSize=18;" parent="1" vertex="1"><mxGeometry x="490" y="180" width="220" height="30" as="geometry"/></mxCell><mxCell id="36" value="asyncClient" style="text;html=1;strokeColor=#A50040;fillColor=#d80073;align=center;verticalAlign=middle;whiteSpace=wrap;rounded=0;fontColor=#ffffff;" parent="1" vertex="1"><mxGeometry x="560" y="80" width="100" height="30" as="geometry"/></mxCell><mxCell id="42" style="rounded=0;orthogonalLoop=1;jettySize=auto;html=1;exitX=0.5;exitY=1;exitDx=0;exitDy=0;exitPerimeter=0;entryX=0;entryY=0;entryDx=0;entryDy=32.5;entryPerimeter=0;fillColor=#0050ef;strokeColor=#001DBC;" parent="1" source="37" target="21" edge="1"><mxGeometry relative="1" as="geometry"/></mxCell><mxCell id="37" value="" style="shape=cylinder3;whiteSpace=wrap;html=1;boundedLbl=1;backgroundOutline=1;size=15;" parent="1" vertex="1"><mxGeometry x="130" y="295" width="40" height="210" as="geometry"/></mxCell><mxCell id="44" style="edgeStyle=none;rounded=0;orthogonalLoop=1;jettySize=auto;html=1;exitX=0.5;exitY=0;exitDx=0;exitDy=0;exitPerimeter=0;fillColor=#0050ef;strokeColor=#001DBC;" parent="1" source="38" edge="1"><mxGeometry relative="1" as="geometry"><mxPoint x="330" y="80" as="targetPoint"/></mxGeometry></mxCell><mxCell id="38" value="" style="shape=cylinder3;whiteSpace=wrap;html=1;boundedLbl=1;backgroundOutline=1;size=15;" parent="1" vertex="1"><mxGeometry x="180" y="295" width="40" height="210" as="geometry"/></mxCell><mxCell id="41" value="resp" style="text;html=1;strokeColor=none;fillColor=none;align=center;verticalAlign=middle;whiteSpace=wrap;rounded=0;" parent="1" vertex="1"><mxGeometry x="220" y="630" width="60" height="30" as="geometry"/></mxCell><mxCell id="43" value="req cmd" style="text;html=1;strokeColor=none;fillColor=none;align=center;verticalAlign=middle;whiteSpace=wrap;rounded=0;" parent="1" vertex="1"><mxGeometry x="250" y="550" width="60" height="30" as="geometry"/></mxCell><mxCell id="47" value="hget" style="text;html=1;strokeColor=none;fillColor=none;align=center;verticalAlign=middle;whiteSpace=wrap;rounded=0;" parent="1" vertex="1"><mxGeometry x="120" y="450" width="60" height="30" as="geometry"/></mxCell><mxCell id="48" value="hset" style="text;html=1;strokeColor=none;fillColor=none;align=center;verticalAlign=middle;whiteSpace=wrap;rounded=0;" parent="1" vertex="1"><mxGeometry x="120" y="410" width="60" height="30" as="geometry"/></mxCell><mxCell id="49" value="hmset" style="text;html=1;strokeColor=none;fillColor=none;align=center;verticalAlign=middle;whiteSpace=wrap;rounded=0;" parent="1" vertex="1"><mxGeometry x="120" y="360" width="60" height="30" as="geometry"/></mxCell><mxCell id="50" value="resp1" style="text;html=1;strokeColor=none;fillColor=none;align=center;verticalAlign=middle;whiteSpace=wrap;rounded=0;" parent="1" vertex="1"><mxGeometry x="170" y="440" width="60" height="30" as="geometry"/></mxCell><mxCell id="51" value="resp2" style="text;html=1;strokeColor=none;fillColor=none;align=center;verticalAlign=middle;whiteSpace=wrap;rounded=0;" parent="1" vertex="1"><mxGeometry x="170" y="395" width="60" height="30" as="geometry"/></mxCell><mxCell id="52" value="resp" style="text;html=1;strokeColor=none;fillColor=none;align=center;verticalAlign=middle;whiteSpace=wrap;rounded=0;" parent="1" vertex="1"><mxGeometry x="290" y="40" width="60" height="30" as="geometry"/></mxCell><mxCell id="53" value="" style="shape=cylinder3;whiteSpace=wrap;html=1;boundedLbl=1;backgroundOutline=1;size=15;" vertex="1" parent="1"><mxGeometry x="315" y="295" width="40" height="210" as="geometry"/></mxCell><mxCell id="54" value="" style="shape=cylinder3;whiteSpace=wrap;html=1;boundedLbl=1;backgroundOutline=1;size=15;" vertex="1" parent="1"><mxGeometry x="365" y="295" width="40" height="210" as="geometry"/></mxCell><mxCell id="55" value="" style="shape=cylinder3;whiteSpace=wrap;html=1;boundedLbl=1;backgroundOutline=1;size=15;" vertex="1" parent="1"><mxGeometry x="500" y="295" width="40" height="210" as="geometry"/></mxCell><mxCell id="56" value="" style="shape=cylinder3;whiteSpace=wrap;html=1;boundedLbl=1;backgroundOutline=1;size=15;" vertex="1" parent="1"><mxGeometry x="550" y="295" width="40" height="210" as="geometry"/></mxCell><mxCell id="57" value="" style="shape=cylinder3;whiteSpace=wrap;html=1;boundedLbl=1;backgroundOutline=1;size=15;" vertex="1" parent="1"><mxGeometry x="640" y="300" width="40" height="210" as="geometry"/></mxCell><mxCell id="58" value="" style="shape=cylinder3;whiteSpace=wrap;html=1;boundedLbl=1;backgroundOutline=1;size=15;" vertex="1" parent="1"><mxGeometry x="690" y="300" width="40" height="210" as="geometry"/></mxCell><mxCell id="59" value="mget" style="text;html=1;strokeColor=none;fillColor=none;align=center;verticalAlign=middle;whiteSpace=wrap;rounded=0;" vertex="1" parent="1"><mxGeometry x="305" y="365" width="60" height="30" as="geometry"/></mxCell><mxCell id="60" value="resp" style="text;html=1;strokeColor=none;fillColor=none;align=center;verticalAlign=middle;whiteSpace=wrap;rounded=0;" vertex="1" parent="1"><mxGeometry x="355" y="365" width="60" height="30" as="geometry"/></mxCell><mxCell id="61" value="zadd" style="text;html=1;strokeColor=none;fillColor=none;align=center;verticalAlign=middle;whiteSpace=wrap;rounded=0;" vertex="1" parent="1"><mxGeometry x="490" y="365" width="60" height="30" as="geometry"/></mxCell><mxCell id="62" value="resp" style="text;html=1;strokeColor=none;fillColor=none;align=center;verticalAlign=middle;whiteSpace=wrap;rounded=0;" vertex="1" parent="1"><mxGeometry x="540" y="370" width="60" height="30" as="geometry"/></mxCell><mxCell id="63" value="zrange" style="text;html=1;strokeColor=none;fillColor=none;align=center;verticalAlign=middle;whiteSpace=wrap;rounded=0;" vertex="1" parent="1"><mxGeometry x="630" y="370" width="60" height="30" as="geometry"/></mxCell><mxCell id="64" value="resp" style="text;html=1;strokeColor=none;fillColor=none;align=center;verticalAlign=middle;whiteSpace=wrap;rounded=0;" vertex="1" parent="1"><mxGeometry x="355" y="425" width="60" height="30" as="geometry"/></mxCell><mxCell id="65" value="resp" style="text;html=1;strokeColor=none;fillColor=none;align=center;verticalAlign=middle;whiteSpace=wrap;rounded=0;" vertex="1" parent="1"><mxGeometry x="680" y="420" width="60" height="30" as="geometry"/></mxCell></root></mxGraphModel></diagram></mxfile>